<?xml version="1.0" encoding="utf-8"?>
<!-- Generator: Adobe Illustrator 18.1.1, SVG Export Plug-In . SVG Version: 6.00 Build 0)  -->
<svg version="1.1" id="Layer_1" xmlns="http://www.w3.org/2000/svg" xmlns:xlink="http://www.w3.org/1999/xlink" x="0px" y="0px"
	 viewBox="0 0 196.7 108" enable-background="new 0 0 196.7 108" xml:space="preserve">
<g>
	<g>
		<g opacity="0.5">
			<path fill="#B0D5EA" d="M63.9,1.5C74,1.5,83.1,6,89.3,13.1c5.6-4.3,12.7-6.8,20.3-6.8c16.8,0,30.7,12.3,33.2,28.4
				c5-2.7,10.8-4.3,16.9-4.3c19.4,0,35.1,15.7,35.1,35.1c0,19.4-15.7,35.1-35.1,35.1c-8.3,0-15.9-2.9-21.9-7.6
				c-7.6,8.6-18.7,14-31,14c-7.7,0-14.9-2.1-21.1-5.8c-4.1,2.7-9.1,4.3-14.4,4.3c-8.7,0-16.4-4.2-21.2-10.7
				C45.1,98,39.2,100,32.9,100C15.8,100,2,86.1,2,69c0-16.2,12.4-29.5,28.3-30.8c-0.1-1-0.1-1.9-0.1-2.9
				C30.1,16.6,45.2,1.5,63.9,1.5 M63.9,1C45,1,29.6,16.4,29.6,35.3c0,0.8,0,1.6,0.1,2.5C22.1,38.5,15,42,9.8,47.7
				C4.4,53.5,1.5,61.1,1.5,69c0,17.3,14.1,31.5,31.5,31.5c6.1,0,11.9-1.7,17-5C55,102,62.9,106,71.2,106c5.1,0,10.1-1.4,14.4-4.2
				c6.4,3.7,13.7,5.7,21.1,5.7c11.8,0,23.1-5,31.1-13.8c6.3,4.9,13.8,7.4,21.8,7.4c19.7,0,35.6-16,35.6-35.6
				c0-19.7-16-35.6-35.6-35.6c-5.7,0-11.4,1.4-16.5,4c-1.4-7.7-5.3-14.7-11.3-19.8c-6.2-5.3-14.1-8.3-22.3-8.3
				c-7.3,0-14.3,2.3-20.2,6.6C82.9,5.2,73.6,1,63.9,1L63.9,1z"/>
		</g>
	</g>
	<g>
		<path opacity="0.35" fill="#B0D5EA" d="M191.9,74.6c0.3-2.2-1.9-3.8-3.9-2.9c-1.7,0.8-3.4,1.6-3.8,3.2
			c-4.1,15.1-19.6,24-34.6,19.9c-1.3-0.3-2.5-0.8-3.7-1.3c2.6,2,5.6,3.6,8.9,4.5c13.4,3.6,23-3.4,32.9-14.3
			C189.9,81.2,191.4,77.9,191.9,74.6z"/>
	</g>
	<path fill="#B0D5EA" fill-opacity="0.5" d="M6.2,80.8c0-16.1,10.8-29.5,25-32.4c1.7-0.3,2.8-1.8,2.8-3.5c0,0,0,0,0,0
		C34,25.1,48.9,9,67.3,9c8.4,0,16.1,3.4,21.9,8.9c1.9,1.8,4.7,2.1,6.9,0.8c4.8-2.9,10.3-4.6,16.3-4.6c13.9,0,21.9,10,25.5,23.3
		c1.1,4,5.3,6.1,9.2,4.9c5-1.5,10.8-2.6,14.6-2.6c15.4,0,28.5,10.9,33,25.9c0,0,0,0,0,0c0.1-19.5-15.7-35.2-35.1-35.2
		c-6.1,0-11.9,1.6-16.9,4.3c-2.5-16.1-16.4-28.4-33.2-28.4c-7.6,0-14.6,2.5-20.3,6.8C83.1,6,74,1.5,63.9,1.5
		c-18.6,0-33.7,15.1-33.7,33.7c0,1,0.1,2,0.1,2.9C14.4,39.5,2,52.8,2,69c0,5.9,1.7,11.3,4.5,16C6.3,83.6,6.2,82.2,6.2,80.8z"/>
</g>
</svg>
