<?xml version="1.0" encoding="utf-8"?>
<!-- Generator: Adobe Illustrator 18.1.1, SVG Export Plug-In . SVG Version: 6.00 Build 0)  -->
<svg version="1.1" id="Layer_1" xmlns="http://www.w3.org/2000/svg" xmlns:xlink="http://www.w3.org/1999/xlink" x="0px" y="0px"
	 viewBox="0 0 200 200" enable-background="new 0 0 200 200" xml:space="preserve">
<g>
	<g>
		<path opacity="0.35" fill="#B0D5EA" d="M195.2,118.2c0.2-1.1-1-2-2-1.5c-0.9,0.4-1.8,0.8-2,1.6c-2.1,7.8-10.8,11.4-18,11.6
			c-0.7-0.2-13.3,1.4-13.9,1.2c1.3,1,11.5,0.6,16.6,0.4c7.2,0.4,11.9-3,17.1-8.6C194.2,121.6,195,119.9,195.2,118.2z"/>
	</g>
	<g>
		<g opacity="0.5">
			<path fill="#B0D5EA" d="M139.2,64.4c19.4,0,35.2,13.5,36,30.5c1.4-0.3,2.8-0.6,4.3-0.6c10.3,0,18.7,9.5,18.7,20.3
				c0,10.9-8.4,20.3-18.7,20.3c0,0-153.1,0-153.2,0c-14.3,0-25.5-5.5-25.5-10.9c0-5.4,11.7-10,26-10c0.1,0,7.3-0.2,7.3-0.2
				c-1-2.1-1.6-2.5-1.6-3.9c0-4.8,6.8-8.7,15.1-8.7c2.6,0,5.1,0.4,7.2,1c-0.3-1-0.5-2.1-0.5-3.2c0-8.2,9.7-14.8,21.7-14.8
				c5.7,0,10.8,1.5,14.7,3.9c3.1-4.3,8.4-5.1,11.9-5.1c2,0,3.4,0.3,3.5,0.3C111.7,72.3,124.4,64.4,139.2,64.4 M139.2,63.9
				c-14.4,0-27.5,7.5-33.4,19.1c-0.6-0.1-1.8-0.2-3.3-0.2c-3.7,0-8.8,0.9-12,4.9c-4-2.4-9.2-3.8-14.6-3.8
				c-12.2,0-22.2,6.8-22.2,15.3c0,0.8,0.1,1.6,0.3,2.4c-2-0.5-4.2-0.8-6.5-0.8c-8.7,0-15.6,4-15.6,9.2c0,1.1,0.3,1.7,0.9,2.6
				c0.1,0.2,0.3,0.5,0.4,0.8c-2.6,0-6.4,0.1-6.5,0.1c-14.9,0-26.5,4.5-26.5,10.3c0,6,11.9,11.1,26,11.1h153.2
				c10.6,0,19.2-9.2,19.2-20.6s-8.6-20.6-19.2-20.6c-1.3,0-2.6,0.1-3.9,0.4C174.6,77.2,158.7,63.9,139.2,63.9L139.2,63.9z"/>
		</g>
	</g>
	<path fill="#B0D5EA" fill-opacity="0.5" d="M3.9,128c0-5.4,11.5-9.8,25.6-9.8c0.1,0,7.2-0.1,7.2-0.1c-1-2.1-1.6-2.5-1.6-3.9
		c0-4.8,6.7-8.7,14.9-8.7c2.6,0,5,0.4,7.1,1.1c-0.3-1-0.5-2.1-0.5-3.2c0-8.2,9.6-14.8,21.3-14.8c5.6,0,10.7,1.5,14.5,3.9
		c4.8-6.8,14.9-4.9,15.2-4.8c5.5-11.3,18-19.2,32.6-19.2c19.1,0,32.4,14,33.2,30.9c1.4-0.3,5.1-1,6.6-1c9.5,0,17.4,8.1,18.3,18
		c0.1-0.7,0.1-1.4,0.1-2.1c0-10.9-8.4-20.1-18.7-20.1c-1.5,0-2.9,0.2-4.3,0.6c-0.8-17-16.6-30.5-36-30.5c-14.8,0-27.6,7.9-33.1,19.2
		c-0.3,0-10.5-2-15.4,4.8c-3.9-2.4-9-3.9-14.7-3.9c-12,0-21.7,6.6-21.7,14.8c0,1.1,0.2,2.2,0.5,3.2c-2.1-0.7-4.6-1.1-7.2-1.1
		c-8.3,0-15.1,3.8-15.1,8.7c0,1.4,0.6,1.8,1.6,3.9c0,0-7.2,0.1-7.3,0.1c-14.3,0-26,4.4-26,9.8c0,1.7,1.1,3.4,3.1,4.9
		C3.9,128.5,3.9,128.3,3.9,128z"/>
</g>
</svg>
