<?xml version="1.0" encoding="utf-8"?>
<!-- Generator: Adobe Illustrator 18.1.1, SVG Export Plug-In . SVG Version: 6.00 Build 0)  -->
<svg version="1.1" id="Layer_1" xmlns="http://www.w3.org/2000/svg" xmlns:xlink="http://www.w3.org/1999/xlink" x="0px" y="0px"
	 viewBox="0 0 200 200" enable-background="new 0 0 200 200" xml:space="preserve">
<g>
	<g>
		<path fill="#FFC560" d="M91.2,154.1c-6.6-1-12.8-3.2-18.6-6.5l-40.2,25.9L57.2,135c-6.4-7.5-10.7-16.6-12.4-26.3l-39.1-8.5
			l38.7-8.4c1.2-9.9,5.1-19.3,11.2-27.2L32.4,28.5L69,52.1c6.8-4.5,14.5-7.5,22.6-8.7L100,4.6l8.4,38.9c8,1.2,15.8,4.2,22.6,8.7
			l36.6-23.6l-23.2,36.1c5.3,6.9,9,15,10.6,23.5l39.3,8.5l-38.6,8.3c-0.9,8.2-3.7,16.3-8.1,23.3l25.7,39.9l-39-25.1
			c-7.5,5.8-16.3,9.6-25.5,11.1l-8.8,40.7L91.2,154.1z"/>
		<path fill="#E2A853" d="M100,9.3l7.6,35c8.6,1.2,16.6,4.3,23.4,9l33.3-21.4l-21.1,32.8c5.5,6.9,9.3,15.2,11,24.3l35.4,7.7
			l-34.8,7.5c-0.9,8.8-3.8,17-8.3,24.2l23.5,36.5l-35.7-23c-7.4,5.9-16.5,10-26.3,11.4l-8,36.8l-8-36.8c-7-1-13.6-3.4-19.5-6.8
			l-36.8,23.7l22.8-35.3c-6.5-7.5-11.1-16.8-12.8-27.1l-35.3-7.6l34.9-7.5c1.2-10.5,5.3-20.1,11.5-28L35.7,31.9L69,53.3
			c6.8-4.7,14.8-7.8,23.4-9L100,9.3 M100-0.2l-2,9l-7.3,33.7C83,43.8,75.6,46.7,69,50.9L36.8,30.2l-7.8-5l5,7.8l20.4,31.6
			c-5.8,7.8-9.6,16.8-10.9,26.4L10,98.3l-9,2l9,2l33.9,7.3c1.8,9.4,5.9,18.2,12,25.6l-22,34.1l-5,7.8l7.8-5l35.8-23.1
			c5.6,3,11.5,5.1,17.7,6.2l7.7,35.5l2,9l2-9l7.7-35.5c9-1.5,17.5-5.2,24.8-10.7l34.5,22.2l7.8,5l-5-7.8l-22.8-35.4
			c4.1-6.8,6.8-14.6,7.8-22.5l33.4-7.2l9-2l-9-2l-34.1-7.4c-1.7-8.2-5.2-16-10.2-22.7L165.9,33l5-7.8l-7.8,5L131,50.9
			c-6.6-4.3-14-7.1-21.8-8.4l-7.3-33.7L100-0.2L100-0.2z"/>
	</g>
	<g>
		<path fill="#FFD950" d="M78.3,150.5c-9.9-4.1-18.3-11-24.4-19.8l-20.7,5.1L49.5,123c-3.6-7.6-5.5-15.7-5.5-24.2
			c0-4.6,0.6-9.3,1.7-13.8l-13.5-8.2l15.5,1.8c4.8-12.4,13.8-22.7,25.4-29l-4.3-17.4L80,46.5c6.4-2.4,13.1-3.7,20-3.7
			c5.1,0,10.2,0.7,15.1,2.1l8-13.2L121.3,47c11,4.5,20.5,12.6,26.7,22.8l17.6-4.3l-14.1,11.1c3,7,4.6,14.5,4.6,22.2
			c0,4.6-0.6,9.2-1.7,13.7l13.5,8.2l-15.5-1.8c-4.3,11.1-12.1,20.7-22.2,27.2l5.1,20.6l-12.9-16.4c-7.1,3.1-14.5,4.6-22.3,4.6
			c-5,0-9.9-0.7-14.7-2l-9,14.8L78.3,150.5z"/>
		<path fill="#FFBD55" d="M121.6,36.1l-1.4,11.5c11.5,4.5,21.1,12.8,27.3,23.3l13.8-3.4l-11.1,8.7c3.1,6.9,4.8,14.5,4.8,22.5
			c0,4.9-0.7,9.7-1.9,14.2l10.2,6.2l-11.7-1.4c-4.3,11.6-12.3,21.4-22.7,27.8l4.1,16.8L122.6,149c-6.9,3.1-14.5,4.8-22.6,4.8
			c-5.3,0-10.4-0.8-15.2-2.1l-7,11.5l1.6-13.4c-10.2-4.1-19-11.2-25.1-20.3l-16.9,4.2l13.3-10.4C47,115.9,45,107.6,45,98.8
			c0-4.9,0.7-9.7,1.9-14.2l-10.2-6.2l11.7,1.4c4.7-12.8,14-23.3,25.9-29.6l-3.4-13.7l8.8,11.2c6.3-2.5,13.1-3.9,20.3-3.9
			c5.4,0,10.6,0.8,15.6,2.2L121.6,36.1 M124.6,27.2l-4.8,7.9l-5.2,8.6c-4.8-1.3-9.7-1.9-14.6-1.9c-6.7,0-13.3,1.2-19.6,3.5l-7.9-10
			L66.8,28l2.2,9l3,12.2C60.6,55.6,51.9,65.6,47,77.6l-10.2-1.2l-9.2-1.1l7.9,4.8l8.9,5.4c-1,4.4-1.6,8.8-1.6,13.3
			c0,8.3,1.8,16.4,5.2,23.9l-12,9.4l-7.3,5.7l9-2.2l15.6-3.8c6,8.5,14.2,15.1,23.7,19.3L75.8,163l-1.1,9.2l4.8-7.9l6.2-10.2
			c4.7,1.2,9.5,1.8,14.3,1.8c7.6,0,15-1.5,21.9-4.4l9.6,12.2l5.7,7.3l-2.2-9l-3.8-15.4c9.8-6.4,17.4-15.7,21.7-26.5l10.1,1.2
			l9.2,1.1l-7.9-4.8l-8.9-5.4c1-4.3,1.6-8.8,1.6-13.3c0-7.6-1.5-14.9-4.4-21.9l9.9-7.8l7.3-5.7l-9,2.2l-12.4,3
			c-6.2-9.9-15.3-17.8-26-22.3l1.2-10L124.6,27.2L124.6,27.2z"/>
	</g>
</g>
</svg>
